<svg id="Capa_1" enable-background="new 0 0 512 512" height="512" viewBox="0 0 512 512" width="512" xmlns="http://www.w3.org/2000/svg"><g><path d="m461.88 294.83-10 21.29v195.88h-67.88l-128-15-128 15h-67.88v-195.88l-10-21.29 205.88-127.32z" fill="#585981"/><path d="m461.88 294.83-10 21.29v195.88h-67.88l-128-15v-329.49z" fill="#41425e"/><path d="m210.88 245.001h30v30h-30z" fill="#7573a2"/><path d="m271.121 245.001h30v30h-30z" fill="#585981"/><path d="m481.88 277.42v38.83h-30v-21.42l-195.88-111.92-195.88 111.92v21.42h-30v-38.83l225.88-129.07z" fill="#ff8710"/><path d="m481.88 277.42v38.83h-30v-21.42l-195.88-111.92v-34.56z" fill="#e65d2c"/><g fill="#6da9fd"><path d="m217.33 165.55c0 21.32 17.35 38.67 38.67 38.67s38.67-17.35 38.67-38.67c0-21.33-17.35-38.67-38.67-38.67s-38.67 17.34-38.67 38.67z"/><path d="m256 60.23c26.98 0 53.96 10.27 74.51 30.81l-21.22 21.21c-14.69-14.69-33.99-22.03-53.29-22.03s-38.6 7.34-53.29 22.03l-21.22-21.21c20.55-20.54 47.53-30.81 74.51-30.81z"/><path d="m256 0c42.41 0 84.82 16.15 117.11 48.44l-21.21 21.21c-26.44-26.44-61.17-39.66-95.9-39.66s-69.46 13.22-95.9 39.66l-21.21-21.21c32.29-32.29 74.7-48.44 117.11-48.44z"/></g><path d="m256 204.22v-77.34c21.32 0 38.67 17.34 38.67 38.67 0 21.32-17.35 38.67-38.67 38.67z" fill="#497ee7"/><path d="m256 60.23c26.98 0 53.96 10.27 74.51 30.81l-21.22 21.21c-14.69-14.69-33.99-22.03-53.29-22.03z" fill="#497ee7"/><path d="m256 0c42.41 0 84.82 16.15 117.11 48.44l-21.21 21.21c-26.44-26.44-61.17-39.66-95.9-39.66z" fill="#497ee7"/><path d="m384 366-11.36 15 11.36 15v28l-11.36 15 11.36 15v28l-11.36 15h-233.26l-11.38-15v-28l11.38-15-11.38-15v-28l11.38-15-11.38-15v-28l11.38-15h233.26l11.36 15z" fill="#ff8710"/><path d="m384 366-11.36 15 11.36 15v28l-11.36 15 11.36 15v28l-11.36 15h-116.64v-174h116.64l11.36 15z" fill="#e65d2c"/><g><g fill="#ffa940"><path d="m128 308h256v30h-256z"/><path d="m128 366h256v30h-256z"/><path d="m128 424h256v30h-256z"/><path d="m128 482h256v30h-256z"/></g><path d="m256 308h128v30h-128z" fill="#ff8710"/><path d="m256 366h128v30h-128z" fill="#ff8710"/><path d="m256 424h128v30h-128z" fill="#ff8710"/><path d="m256 482h128v30h-128z" fill="#ff8710"/></g></g></svg>