<svg id="Icon_Set" enable-background="new 0 0 256 256" height="512" viewBox="0 0 256 256" width="512" xmlns="http://www.w3.org/2000/svg"><g><g><g><g><path d="m190.649 43.637v126.217c0 8.14-6.6 14.733-14.733 14.733h-148.714c-8.133 0-14.733-6.593-14.733-14.733v-126.217c0-8.14 6.6-14.733 14.733-14.733h148.714c8.133 0 14.733 6.593 14.733 14.733z" fill="#ffe2e2"/><path d="m38.252 184.587h-11.05c-8.133 0-14.733-6.593-14.733-14.733v-126.217c0-8.14 6.6-14.733 14.733-14.733h11.05c-8.133 0-14.733 6.593-14.733 14.733v126.217c0 8.14 6.6 14.733 14.733 14.733z" fill="#ffefee"/><g fill="#ff4a73"><path d="m55.958 46.709h-6.862c-2.034 0-3.683-1.649-3.683-3.683v-31.676c0-2.034 1.649-3.683 3.683-3.683h6.862c2.034 0 3.683 1.649 3.683 3.683v31.676c0 2.034-1.649 3.683-3.683 3.683z"/><path d="m154.023 46.709h-6.862c-2.034 0-3.683-1.649-3.683-3.683v-31.676c0-2.034 1.649-3.683 3.683-3.683h6.862c2.034 0 3.683 1.649 3.683 3.683v31.676c0 2.034-1.649 3.683-3.683 3.683z"/></g><path d="m190.649 43.637v126.217c0 8.14-6.6 14.733-14.733 14.733h-11.05c8.133 0 14.733-6.593 14.733-14.733v-126.217c0-8.14-6.6-14.733-14.733-14.733h11.05c8.133 0 14.733 6.593 14.733 14.733z" fill="#ffcfcf"/><path d="m190.649 63.416v106.438c0 8.14-6.6 14.733-14.733 14.733h-148.714c-8.133 0-14.733-6.593-14.733-14.733v-106.438z" fill="#5fcdff"/><path d="m38.252 184.587h-11.05c-8.133 0-14.733-6.593-14.733-14.733v-106.438h11.05v106.438c0 8.14 6.6 14.733 14.733 14.733z" fill="#73d7f9"/><path d="m190.649 63.416v106.438c0 8.14-6.6 14.733-14.733 14.733h-11.05c8.133 0 14.733-6.593 14.733-14.733v-106.438z" fill="#30b6ff"/></g><g><g fill="#f9d335"><path d="m101.698 155.829c-.015.272-.034.627-.062 1.145.019-.383.038-.767.062-1.145z"/><path d="m101.636 156.975c-.013.264-.033.519-.042.788.016-.305.03-.558.042-.788z"/><path d="m101.594 88.442.151 1.655-.22-1.655s-7.753 22.55-24.666 28.187c0 0 23.493 5.691 24.666 41.133l.2-2.439c-.011.166-.017.339-.027.505.045-.812.063-.944.221-2.87 3.028-31.143 24.341-36.33 24.341-36.33-16.913-5.636-24.666-28.186-24.666-28.186z"/></g></g></g><g><g><g><circle cx="193.735" cy="198.537" fill="#44c7b6" r="49.792"/><path d="m201.731 247.694c-2.601.416-5.277.64-7.995.64-27.504 0-49.796-22.291-49.796-49.796 0-27.504 22.291-49.796 49.796-49.796 2.718 0 5.394.224 7.995.64-23.709 3.827-41.8 24.37-41.8 49.156s18.09 45.329 41.8 49.156z" fill="#4bdbc3"/><path d="m243.531 198.538c0 27.504-22.291 49.796-49.796 49.796-2.718 0-5.394-.224-7.995-.64 23.709-3.827 41.8-24.37 41.8-49.156s-18.091-45.329-41.8-49.156c2.601-.416 5.277-.64 7.995-.64 27.504 0 49.796 22.291 49.796 49.796z" fill="#3bb2a0"/></g></g></g></g><g fill="#5f266d"><path d="m61.75 153.76h-25c-2.21 0-4 1.79-4 4s1.79 4 4 4h25c2.21 0 4-1.79 4-4s-1.79-4-4-4z"/><path d="m82.53 153.76h-5.78c-2.21 0-4 1.79-4 4s1.79 4 4 4h5.78c2.21 0 4-1.79 4-4s-1.79-4-4-4z"/><path d="m127.52 112.83c-14.8-4.93-22.07-25.49-22.14-25.69h-.01c-.58-1.7-2.22-2.76-3.96-2.69-1.65.04-3.12 1.1-3.67 2.69-.07.2-7.35 20.76-22.15 25.69-1.68.57-2.78 2.17-2.71 3.94.06 1.77 1.29 3.3 3.01 3.74.84.22 20.59 5.67 21.64 37.38.171 5.143 7.787 5.059 8.058.09l.043-.794c1.005-22.521 12.325-34.291 21.579-36.667 1.73-.43 2.97-1.94 3.05-3.72.07-1.789-1.04-3.399-2.74-3.969zm-25.94 23.67c-4.07-10.63-10.49-16.66-15.65-19.99 7.39-5.04 12.51-12.63 15.63-18.45 3.12 5.82 8.24 13.42 15.64 18.46-5.14 3.33-11.54 9.36-15.62 19.98z"/><path d="m194.65 144.76c0-9.752-.001-91.337-.001-101.119 0-10.329-8.403-18.732-18.733-18.732h-14.206v-13.559c0-4.24-3.45-7.68-7.69-7.68h-6.86c-4.24 0-7.68 3.44-7.68 7.68v13.555h-75.84v-13.555c0-4.24-3.45-7.68-7.68-7.68h-6.86c-4.24 0-7.69 3.44-7.69 7.68v13.558h-14.208c-10.33 0-18.733 8.403-18.733 18.732 0 4.715.001 117.783.001 126.219 0 10.33 8.4 18.73 18.73 18.73h113.66c-6.203 33.396 19.489 63.74 52.88 63.74 29.66 0 53.79-24.13 53.79-53.79 0-29.359-23.64-53.299-52.88-53.779zm-47.17-133.09h6.23v17.204c0 .012-.003.023-.003.035s.003.022.003.035v13.766h-6.23zm-91.84 0v31.04h-6.23v-13.781c0-.007.002-.014.002-.021s-.002-.014-.002-.021v-17.217zm-28.438 21.238h14.208v10.122c0 4.23 3.45 7.68 7.69 7.68h6.86c4.23 0 7.68-3.45 7.68-7.68v-10.125h75.84v10.125c0 4.23 3.44 7.68 7.68 7.68h6.86c4.24 0 7.69-3.45 7.69-7.68v-10.122h14.206c5.918 0 10.733 4.814 10.733 10.732v15.78h-170.18v-15.779c0-5.918 4.815-10.733 10.733-10.733zm-.002 147.682c-5.92 0-10.73-4.81-10.73-10.73v-102.44h170.18v77.8c-20.25 2.67-36.98 16.65-43.63 35.37zm166.54 63.74c-25.25 0-45.8-20.54-45.8-45.79 0-22.793 16.768-41.822 38.71-45.24 27.914-4.349 52.88 17.326 52.88 45.24 0 25.25-20.54 45.79-45.79 45.79z"/><path d="m211.898 184.413-25.719 24.139-10.205-12.927c-1.369-1.734-3.886-2.03-5.618-.661-1.734 1.369-2.03 3.884-.661 5.618l12.905 16.347c1.456 1.843 4.173 2.037 5.877.438l28.896-27.12c1.611-1.513 1.691-4.044.179-5.654-1.512-1.612-4.043-1.691-5.654-.18z"/></g></g></svg>