<svg id="Layer_1" enable-background="new 0 0 512 512" height="512" viewBox="0 0 512 512" width="512" xmlns="http://www.w3.org/2000/svg"><g><g><path d="m106.613 457.176-3.814 1c41.955 33.67 95.22 53.824 153.201 53.824s111.246-20.154 153.201-53.824l-3.814-1z" fill="#d88a55"/></g><g><path d="m256 22c-135.31 0-245 109.69-245 245 0 57.506 19.821 110.378 52.993 152.176l4.702 1h374.609l4.702-1c33.173-41.798 52.994-94.67 52.994-152.176 0-135.31-109.69-245-245-245z" fill="#ffe5c2"/></g><path d="m219 341.404h74v46.596h-74z" fill="#838383"/><path d="m219 341.404h30v46.596h-30z" fill="#5a5a5a"/><g><path d="m344 420.176v-23.176c0-5.523-4.477-10-10-10h-156c-5.523 0-10 4.477-10 10v23.176z" fill="#9c9c9c"/></g><path d="m228 387h-50c-5.523 0-10 4.477-10 10v23.176h50v-23.176c0-5.523 4.477-10 10-10z" fill="#838383"/><path d="m102.799 458.176h306.403c14.343-11.51 27.372-24.593 38.806-39h-384.015c11.434 14.407 24.462 27.49 38.806 39z" fill="#ffbd86"/><path d="m131.043 435.75c-6.317-5.222-12.366-10.756-18.129-16.574h-48.921c11.434 14.407 24.462 27.49 38.806 39h306.403c7.81-6.268 15.214-13.016 22.199-20.176h-294.033c-2.304 0-4.549-.782-6.325-2.25z" fill="#f6a96c"/><g><path d="m433 102.404h-354c-5.523 0-10 4.477-10 10v141.904c10.379-7.343 23.031-11.675 36.684-11.675 35.115 0 63.684 28.568 63.684 63.684 0 13.391-4.164 25.823-11.252 36.088h274.884c5.523 0 10-4.477 10-10v-220c0-5.524-4.477-10.001-10-10.001z" fill="#9c9c9c"/><path d="m423 117.404h-334c-2.761 0-5 2.239-5 5v124.035c6.771-2.46 14.073-3.806 21.684-3.806 35.115 0 63.684 28.568 63.684 63.684 0 .365-.021.725-.028 1.088h42.768l1-1v-113.959c0-12.301 10.007-22.308 22.308-22.308h149.169c12.3 0 22.308 10.007 22.308 22.308v113.958l1 1h15.107c2.761 0 5-2.239 5-5v-180c0-2.761-2.239-5-5-5z" fill="#d8ecfe"/><path d="m105.684 241.633c2.82 0 5.592.2 8.316.55v-28.9h-30v32.086c6.78-2.412 14.076-3.736 21.684-3.736z" fill="#b3dafe"/><g><path d="m213.108 192.446c0-12.301 10.007-22.308 22.308-22.308h22.084v-15.738c0-5.292 3.971-9.659 9.236-10.159l1.659-.157-.919-1.39c-3.252-4.917-5.355-10.612-6.082-16.47l-.108-.877h-8.397c-8.108 0-14.705-6.597-14.705-14.705v-11.492c0-3.774 1.44-7.368 4.055-10.119l.275-.289v-15.161h-190.533c-6.065 0-10.981 4.916-10.981 10.981v117.74c0 6.065 4.916 10.981 10.981 10.981h102.27c2.805 0 5.48 1.178 7.375 3.246l28.484 31.103c2.03 2.216 5.724.78 5.724-2.225v-27.124c0-2.761 2.239-5 5-5h12.274z" fill="#0182fc"/></g><g><path d="m81 202.302v-117.74c0-6.065 4.916-10.981 10.981-10.981h-40c-6.065 0-10.981 4.916-10.981 10.981v117.74c0 6.065 4.916 10.981 10.981 10.981h40c-6.065 0-10.981-4.916-10.981-10.981z" fill="#0172fb"/></g><g><g fill="#fff"><path d="m276.815 173.023c0-1.581 1.279-2.866 2.856-2.882l.028-1.003h-44.284c-12.872 0-23.308 10.435-23.308 23.308v114.958h63.707l1-.404v-133.977z"/><path d="m384.584 169.139h-44.284l.028 1.003c1.578.016 2.857 1.301 2.857 2.882v133.976l1 .404h63.708v-114.958c-.001-12.872-10.436-23.307-23.309-23.307z"/></g><path d="m256.308 169.139h-20.892c-12.872 0-23.308 10.435-23.308 23.308v114.958h20.892v-114.959c0-12.872 10.435-23.307 23.308-23.307z" fill="#f8f6f6"/><path d="m252.888 84.445h8.197v-5.595c0-3.938 3.203-7.141 7.14-7.141h25.891c13.9 0 26.393-7.737 32.602-20.191 1.148-2.303 3.621-3.791 6.301-3.791h5.644c11.167 0 20.252 9.085 20.252 20.252v16.467h8.197c4.58 0 8.676 2.106 11.375 5.4v-28.809c0-33.71-27.327-61.037-61.037-61.037h-14.9c-33.71 0-61.037 27.327-61.037 61.037v28.808c2.699-3.293 6.795-5.4 11.375-5.4z" fill="#883f2e"/><path d="m252.888 84.445h8.197v-5.595c0-3.938 3.203-7.141 7.14-7.141h14.801v-10.672c0-29.137 20.423-53.49 47.73-59.565-4.285-.953-8.733-1.472-13.306-1.472h-14.9c-33.71 0-61.037 27.327-61.037 61.037v28.808c2.699-3.293 6.795-5.4 11.375-5.4z" fill="#6d3326"/><path d="m378.587 200.658-30.066-52.916c-7.056 7.563-17.099 12.304-28.233 12.304h-20.575c-11.134 0-21.177-4.742-28.233-12.304l-30.066 52.916c-1.278 1.847-.78 4.384 1.102 5.611l20.787 13.555-19.29 12.854c-1.724 1.149-2.243 3.448-1.181 5.225l33.985 56.871v-121.75c0-1.591 1.294-2.885 2.885-2.885h60.6c1.591 0 2.885 1.294 2.885 2.885v121.75l33.985-56.871c1.062-1.778.543-4.077-1.18-5.225l-19.29-12.854 20.787-13.555c1.877-1.227 2.376-3.764 1.098-5.611z" fill="#eaf6ff"/><g><path d="m340.3 169.139h-60.6c-2.145 0-3.885 1.739-3.885 3.885v134.381h68.369v-134.382c0-2.145-1.739-3.884-3.884-3.884z" fill="#8ac9fe"/></g><path d="m303.5 242.006h13v65.398h-13z" fill="#838383"/><path d="m352.292 143.192h-.119c-3.795 5.54-8.991 10.046-15.077 13h13.404v43c0 16.99-13.823 30.813-30.813 30.813h-19.373c-16.991 0-30.813-13.823-30.813-30.813v-43h13.404c-6.086-2.954-11.282-7.46-15.077-13h-.119c-6.18 0-11.208 5.028-11.208 11.208v44.792c0 24.159 19.655 43.813 43.813 43.813h19.373c24.159 0 43.813-19.654 43.813-43.813v-44.792c0-6.179-5.028-11.208-11.208-11.208z" fill="#9c9c9c"/><g><g><g><path d="m261.085 121.42v-37.974h-8.197c-8.674 0-15.705 7.031-15.705 15.705v11.492c0 8.674 7.031 15.705 15.705 15.705h8.522c-.206-1.615-.325-3.258-.325-4.928z" fill="#f6a96c"/><path d="m367.112 83.446h-8.197v37.974c0 1.67-.118 3.313-.325 4.928h8.522c8.674 0 15.705-7.031 15.705-15.705v-11.492c0-8.674-7.032-15.705-15.705-15.705z" fill="#ffbd86"/></g><path d="m330.413 166.808v-8.117c-3.229.878-6.622 1.356-10.126 1.356h-20.575c-3.504 0-6.896-.478-10.126-1.356v8.117c0 1.287-1.044 2.331-2.331 2.331h-4.448l25.211 40.654c.912 1.47 3.05 1.47 3.962 0l25.211-40.654h-4.448c-1.286 0-2.33-1.044-2.33-2.331z" fill="#ffbd86"/><path d="m308.064 169.139c1.287 0 2.331-1.044 2.331-2.331v-6.761h-10.682c-3.504 0-6.896-.478-10.126-1.356v8.117c0 1.287-1.044 2.331-2.331 2.331h-4.448l25.211 40.654c.912 1.47 3.05 1.47 3.962 0l8.423-13.583-16.788-27.072h4.448z" fill="#f6a96c"/><g><path d="m338.663 46.726h-5.644c-3.019 0-5.849 1.643-7.196 4.345-5.803 11.639-17.817 19.638-31.707 19.638h-25.891c-4.496 0-8.14 3.645-8.14 8.14v42.571c0 21.886 17.742 39.627 39.627 39.627h20.575c21.886 0 39.627-17.742 39.627-39.627v-53.442c.001-11.737-9.514-21.252-21.251-21.252z" fill="#fed2a4"/></g><g><path d="m281 121.42v-42.571c0-4.496 3.645-8.14 8.14-8.14h-20.915c-4.496 0-8.14 3.645-8.14 8.14v42.571c0 21.885 17.742 39.627 39.627 39.627h20.575c.057 0 .113-.004.17-.004-21.807-.092-39.457-17.795-39.457-39.623z" fill="#ffbd86"/></g></g><g><g><g><path d="m284.589 103.328c-4.142 0-7.5-3.357-7.5-7.5v-7.925c0-4.143 3.358-7.5 7.5-7.5s7.5 3.357 7.5 7.5v7.925c0 4.143-3.358 7.5-7.5 7.5z" fill="#d88a55"/></g><g><path d="m334.711 103.328c-4.142 0-7.5-3.357-7.5-7.5v-7.925c0-4.143 3.358-7.5 7.5-7.5s7.5 3.357 7.5 7.5v7.925c0 4.143-3.358 7.5-7.5 7.5z" fill="#d88a55"/></g></g><g><path d="m311.344 147.24c-8.083 0-15.686-3.15-21.407-8.873-2.929-2.929-2.929-7.678 0-10.606s7.678-2.929 10.606.001c2.889 2.888 6.724 4.479 10.8 4.479s7.911-1.591 10.8-4.479c2.929-2.93 7.678-2.929 10.606-.001 2.929 2.929 2.929 7.678 0 10.606-5.72 5.723-13.322 8.873-21.405 8.873z" fill="#d88a55"/></g><g><path d="m315.113 120.114h-5.113c-5.545 0-10.056-4.512-10.056-10.057v-11.93c0-4.143 3.358-7.5 7.5-7.5s7.5 3.357 7.5 7.5v6.986h.169c4.142 0 7.5 3.357 7.5 7.5s-3.358 7.501-7.5 7.501z" fill="#d88a55"/></g></g></g></g><g><g><circle cx="105.684" cy="306.316" fill="#22b27f" r="64.684"/></g><path d="m72.633 306.316c0-30.267 20.791-55.67 48.867-62.728-5.063-1.273-10.359-1.956-15.816-1.956-35.724.001-64.684 28.961-64.684 64.684 0 35.724 28.96 64.684 64.684 64.684 5.457 0 10.754-.683 15.816-1.956-28.077-7.057-48.867-32.461-48.867-62.728z" fill="#09a76d"/><g><path d="m135.697 294.615h-16.341c-1.088 0-1.971-.882-1.971-1.97v-16.342c0-1.088-.882-1.97-1.971-1.97h-19.461c-1.088 0-1.971.882-1.971 1.97v16.342c0 1.088-.882 1.97-1.971 1.97h-16.341c-1.088 0-1.971.882-1.971 1.971v19.462c0 1.088.882 1.971 1.971 1.971h16.342c1.088 0 1.971.882 1.971 1.971v16.341c0 1.088.882 1.971 1.971 1.971h19.462c1.088 0 1.971-.882 1.971-1.971v-16.341c0-1.088.882-1.971 1.971-1.971h16.341c1.088 0 1.971-.882 1.971-1.971v-19.462c-.002-1.089-.885-1.971-1.973-1.971z" fill="#fff"/></g><g><path d="m106.253 328c-1.088 0-1.971-.882-1.971-1.97v-16.342c0-1.088-.882-1.97-1.971-1.97h-16.34c-1.088 0-1.971-.882-1.971-1.971v-11.132h-8.33c-1.088 0-1.971.882-1.971 1.971v19.462c0 1.088.882 1.971 1.971 1.971h16.341c1.088 0 1.971.882 1.971 1.97v16.342c0 1.088.882 1.97 1.97 1.97h19.462c1.088 0 1.971-.882 1.971-1.97v-8.331z" fill="#f8f6f6"/></g></g><g><g><path d="m148 121.345h-66c-4.142 0-7.5-3.357-7.5-7.5s3.358-7.5 7.5-7.5h66c4.142 0 7.5 3.357 7.5 7.5s-3.358 7.5-7.5 7.5z" fill="#fff"/></g><g><path d="m188 151.125h-106c-4.142 0-7.5-3.357-7.5-7.5s3.358-7.5 7.5-7.5h106c4.142 0 7.5 3.357 7.5 7.5s-3.358 7.5-7.5 7.5z" fill="#fff"/></g><g><path d="m188 180.904h-106c-4.142 0-7.5-3.357-7.5-7.5s3.358-7.5 7.5-7.5h106c4.142 0 7.5 3.357 7.5 7.5s-3.358 7.5-7.5 7.5z" fill="#fff"/></g></g></g></g></svg>