<svg id="Layer_1" enable-background="new 0 0 512 512" height="512" viewBox="0 0 512 512" width="512" xmlns="http://www.w3.org/2000/svg"><g><path d="m17.208 203.075s51.336 120.15 236.129 120.15 236.985-120.17 236.985-120.17c-28.125-104.299-123.367-181.059-236.554-181.059-113.194 0-208.442 76.77-236.56 181.079z" fill="#ffdd40"/><path d="m255.067 33.15c-1.521.712-32.554 15.743-7.885 46.735.404.507.794 1.041 1.174 1.598 4.835.9 9.844.588 14.548-.977 9.195-3.058 23.614-6.12 35.369-.831 13.835 6.225 12.25 24.843 11.486 35.382-.266 3.664.605 7.339 2.586 10.446 1.169 1.834 2.097 6.772 2.833 8.693.915 2.388 3.561 4.854 3.964 7.359 2.124-1.029 5.159-2.15 7.755-1.783.318-11.017 1.335-25.888 1.335-25.888 10.884-53.309-32.209-79.775-73.165-80.734z" fill="#d1714b"/><path d="m239.938 33.979c-41.315 5.629-45.242 29.054-45.26 37.648-.004 1.802-1.002 3.473-2.623 4.261-21.491 10.455-9.904 63.834-9.904 63.834 2.158.144 4.417 1.018 6.102 1.834.413-2.568 1.086-5.095 2.037-7.539.725-1.862 3.626-6.736 4.759-8.513 1.965-3.083 2.861-6.721 2.593-10.357-.773-10.512-2.396-29.229 11.479-35.472 11.754-5.289 26.174-2.226 35.369.831 2.652.882 5.403 1.349 8.163 1.448-.474-.725-.96-1.425-1.473-2.069-23.665-29.732 3.937-44.777 7.564-46.579-6.348-.384-12.686-.161-18.806.673z" fill="#bc6242"/><path d="m290.899 234.068c-2.921 2.987-5.881 5.597-8.748 7.824-8.118 6.304-18.136 9.728-28.454 9.728-1.476 0-2.944-.078-4.403-.217-.401 8.718-2.084 22.405-8.33 31.578-.058.085-.132.17-.196.254h28.214c.351-.892.864-1.727 1.551-2.445l26.456-27.659c.433-.453.918-.819 1.431-1.116-4.629-5.919-6.664-13.427-7.521-17.947z" fill="#ffaa7b"/><path d="m242.963 282.981c6.211-9.122 7.91-22.707 8.323-31.432-9.46-.49-18.56-3.846-26.044-9.658-2.801-2.175-5.69-4.72-8.546-7.62-.875 4.518-2.904 11.844-7.42 17.664.565.308 1.096.703 1.568 1.196l26.456 27.659c.687.718 1.2 1.554 1.552 2.445h3.914c.065-.084.139-.169.197-.254z" fill="#fc9460"/><path d="m268.98 288.797h-30.126c-1.956 5.339-6.174 13.946-14.298 19.947 7.188 13.15 14.436 24.503 20.333 33.132 3.375 4.939 6.117 10.24 8.206 15.776 2.09-5.536 4.83-10.837 8.205-15.776 6.03-8.824 13.473-20.499 20.82-34.027-7.371-5.937-11.279-13.973-13.14-19.052z" fill="#49b1f7"/><path d="m268.468 288.569c-.731-2.025-.558-4.226.413-6.075h-15.317-14.611c.971 1.848 1.144 4.049.413 6.075-.87 2.411-2.222 5.536-4.196 8.797l8.934 12.03h19.188l9.175-12.355c-1.869-3.144-3.158-6.141-3.999-8.472z" fill="#4f71b6"/><path d="m132.028 34.504c-18.273-13.198-32.887-19.474-47.694-18.827-2.6 3.12-9.55 12.536-8.822 23.257.424 6.25 3.39 11.827 8.822 16.596-.308.469-.597 1.002-.845 1.577 11.969-.62 24.155 2.58 33.848 9.611 4.02 2.916 7.227 7.524 9.146 13.126l2.494 9.694 5.305 11.913c1.676-1.137 5.167-2.107 7.658-1.143l.002-.004 2.399-37.284c1.011-10.746-3.668-22.271-12.313-28.516z" fill="#3c58a0"/><path d="m55.465 66.719c8.593-6.233 19.134-9.449 29.744-9.673.573-1.068 1.193-1.734 1.193-1.734-21.211-17.155-.065-39.651-.029-39.69-14.078.01-28.172 6.296-45.598 18.883-8.645 6.244-13.325 17.769-12.313 28.516l2.399 37.284.002.004c2.491-.964 5.982.006 7.657 1.143l5.304-11.913 2.493-9.693c1.921-5.603 5.128-10.211 9.148-13.127z" fill="#2a428c"/><path d="m126.483 78.133c-1.919-5.602-5.125-10.21-9.146-13.127-9.515-6.902-21.433-10.118-33.19-9.647.063.056.123.114.187.17-1.454 2.215-2.551 5.77-.282 9.208-.86.453-1.987 1.081-3.256 1.867 12.809-.989 26.11 1.417 36.541 7.236 4.02 2.243 7.227 5.788 9.146 10.097l3.536 7.941z" fill="#6289cc"/><path d="m55.465 73.842c8.288-4.624 18.399-7.097 28.638-7.419 1.402-.77 2.299-1.179 2.299-1.179-4.816-4.815-.002-9.93 0-9.932-11.009 0-22.021 3.229-30.936 9.695-4.02 2.916-7.227 7.525-9.146 13.127l-3.537 13.746 3.535-7.94c1.92-4.31 5.127-7.855 9.147-10.098z" fill="#4f71b6"/><path d="m142.42 99.399c-2.34-2.145-7.003-1.058-9.018.256.442 2.75.467 5.563.085 8.341l-2.379 17.325c0 1.397-.044 2.767-.125 4.113 5.8 1.749 8.682-3.458 9.167-7.031.209-1.538.551-3.055 1.024-4.534 1.543-4.82 7.109-13.096 1.246-18.47z" fill="#e58b6c"/><path d="m30.325 99.399c2.341-2.145 7.003-1.058 9.018.256-.441 2.75-.467 5.563-.085 8.341l2.379 17.325c0 1.397.044 2.767.125 4.113-5.8 1.749-8.682-3.458-9.167-7.031-.209-1.538-.551-3.055-1.024-4.534-1.544-4.82-7.11-13.096-1.246-18.47z" fill="#d1714b"/><path d="m133.956 99.58-5.631-12.645-1.842-4.137c-1.919-4.309-5.125-7.854-9.146-10.097-9.844-5.492-22.244-7.943-34.375-7.37-5.57 3.107-17.377 10.991-17.377 22.01 0 .604-.006 1.321-.012 2.141-.084 11.095.48 21.208 1.67 30.359 15.08-5.897 34.614-4.491 47.563 4.226.14.094.28.189.42.286 4.553 3.124 9.951 6.209 15.974 8.955.306-2.566.478-5.224.478-7.986l2.379-17.325c.385-2.805.353-5.644-.101-8.417z" fill="#f2a08b"/><path d="m59.087 124.065c2.878-1.937 6.082-3.512 9.489-4.728-1.859-14.419-1.491-27.007-1.491-31.998 0-13.308 19.316-22.096 19.316-22.096s-.001-.001-.001-.001c-11.015.001-22.028 2.488-30.935 7.458-4.021 2.243-7.227 5.788-9.146 10.098l-1.841 4.135v.001l-5.713 12.829c-.425 2.714-.453 5.487-.077 8.228l2.379 17.328c0 2.938.191 5.76.536 8.475 6.463-2.866 12.238-6.134 17.065-9.445.139-.094.279-.189.419-.284z" fill="#e58b6c"/><path d="m120.343 183.908c-4.436-4.436-6.265-10.954-6.986-14.715-2.101 2.141-4.228 4.016-6.289 5.617-5.805 4.507-12.946 6.985-20.316 7.067-.536 9.079-3.094 28.659-14.882 43.307-.368-.038-.835-.073-1.372-.086 8.413 11.15 15.756 17.522 15.864 17.675.06-.085 25.961-23.098 36.209-56.68.003-.011.01-.019.013-.03-.702-.648-1.449-1.362-2.241-2.155z" fill="#e58b6c"/><path d="m86.372 181.885c-7.504 0-14.791-2.49-20.695-7.075-2.061-1.601-4.188-3.476-6.289-5.617-.721 3.761-2.549 10.279-6.986 14.715-.793.793-1.539 1.507-2.242 2.155.003.011.01.019.014.03 5.152 16.884 13.919 30.774 21.536 40.584.494.051.79.107.79.107 12.628-15.182 15.249-35.634 15.769-44.959-.632.035-1.263.06-1.897.06z" fill="#d1714b"/><path d="m195.739 229.099c-2.318-8.775-9.082-15.679-17.799-18.207-15.32-4.442-30.814-11.159-39.775-15.312-12.325 35.84-37.675 58.056-38.14 58.7l.014.011-10.382 10.617c-1.194 1.22-3.157 1.322-4.471.234-.728-.886-14.332-10.4-28.17-28.304-.038.337-.081.67-.103 1.021-5.481-.117-23.858.512-37.871 13.444-4.242 3.916-7.658 8.595-10.262 13.993-.004.568-.014 1.133-.014 1.702 0 70.078 29.435 133.269 76.601 177.924 3.628-54.889 13.577-99.763 20.084-124.39 3.187-12.063 12.486-21.556 24.47-25.031 19.046-5.522 38.289-13.603 50.909-19.322l22.949-10.394c-2.718-15.254-5.688-27.786-8.04-36.686z" fill="#3c58a0"/><path d="m58.365 239.425c0-.294.015-.568.025-.849-8.746-10.988-17.753-25.331-23.811-42.996-4.451 2.063-10.517 4.759-17.37 7.495-5.494 20.381-8.442 41.806-8.442 63.923 0 .662.021 1.319.026 1.98 13.141-32.466 49.572-29.553 49.572-29.553z" fill="#2a428c"/><g><path d="m138.177 191.195c-6.217-2.811-10.165-4.821-10.165-4.821s-.907-.361-2.65-1.581c-1.212-.848-2.905-.28-3.337 1.135-2.945 9.652-12.346 34.358-36.226 56.598 2.587 2.465 5.34 4.905 8.288 7.294l6.186 5.012c24.283-23.209 34.927-48.272 39.075-60.981.345-1.056-.16-2.199-1.171-2.656z" fill="#4f71b6"/></g><path d="m101.854 179.259c1.812-.934 3.562-2.026 5.214-3.308 10.234-7.947 22.092-22.565 24.26-43.726-6.075-2.761-11.515-5.869-16.101-9.015-.14-.096-.28-.192-.42-.286-12.988-8.743-32.601-10.133-47.7-4.174 3.961 32.059 15.593 52.337 34.747 60.509z" fill="#e9efff"/><path d="m65.677 175.951c11.02 8.558 26.098 9.303 37.846 2.372-24.074-9.619-32.306-37.334-35.082-60.076-3.357 1.209-6.515 2.766-9.354 4.677-.14.094-.28.19-.42.286-4.859 3.333-10.677 6.623-17.192 9.503 2.299 20.896 14.047 35.352 24.202 43.238z" fill="#d3dcfb"/><path d="m418.915 64.18c-.812 1.041-2.565 3.66-2.322 6.595.161 1.952 1.136 3.642 2.897 5.022 3.686 2.889 26.729 44.741 41.335 72.196.435.956 5.54 11.674 16.707 14.904 7.704 2.231 16.322.313 25.624-5.671.048-.606.078-1.217.078-1.835 0-6.765-2.932-12.857-7.617-17.124-5.762-5.248-7.106-12.78-5.042-18.935 7.683-22.913-9.533-31.223-20.604-59.926-9.627-24.959-36.863-23.381-45.675-22.162-1.039.144-2.086.198-3.134.18-.751.013-1.5-.027-2.248-.095v26.851z" fill="#6e5d76"/><path d="m462.173 147.332s-36.48-68.58-41.757-72.715c-5.277-4.136 0-9.898 0-9.898v-27.309c-.797-.013-1.594-.056-2.386-.166-8.811-1.219-36.048-2.797-45.675 22.162-11.072 28.703-28.287 37.013-20.604 59.926 2.064 6.156.72 13.687-5.042 18.935-4.685 4.267-7.617 10.359-7.617 17.124 0 4.422 1.253 8.556 3.429 12.081 2.729 4.42 3.988 9.585 3.412 14.721-.744 6.633.445 14.126 6.026 21.288h69.203l69.159-.426c5.581-7.161 6.815-14.228 6.071-20.861-.576-5.136.683-10.301 3.412-14.721 2.176-3.525 3.429-7.659 3.429-12.081-28.895 19.327-41.06-8.06-41.06-8.06z" fill="#56415e"/><path d="m410.462 240.761-.174.367.035.404c.013.148.044.497.093 1.015 3.56.352 7.144.549 10.747.549 12.788 0 25.373-2.246 37.225-6.513l8.511-45.184c-2.21-1.314-4.398-2.667-6.551-4.077-6.308-4.131-10.737-10.615-12.178-18.016l-.022-.114c-2.101 2.141-4.228 4.016-6.289 5.617-5.905 4.585-13.191 7.075-20.696 7.075-.473 0-.946-.01-1.417-.03.014 12.077-.889 41.201-9.284 58.907z" fill="#ffaa7b"/><path d="m411.818 241.403c8.557-18.048 9.46-47.328 9.436-59.52-.03 0-.06.002-.09.002-7.504 0-14.791-2.49-20.695-7.075-2.061-1.601-4.189-3.476-6.289-5.617-.007.038-.014.076-.022.114-1.441 7.401-5.87 13.885-12.178 18.016l-.001.001c-2.153 1.41-4.341 2.762-6.55 4.077l8.511 45.184c8.989 3.236 18.4 5.304 28.001 6.117-.084-.839-.123-1.299-.123-1.299z" fill="#fc9460"/><path d="m410.323 241.532c.218 2.524 5.528 61.984 22.368 75.099 2.282 1.777 4.701 2.672 7.213 2.672.037 0 .074 0 .111-.001.163 2.076.611 5.968 1.814 10.549l16.935-95.267c-11.869 4.752-24.624 7.257-37.602 7.257-3.645 0-7.27-.205-10.865-.594z" fill="#49b1f7"/><path d="m421.163 420.815h4.496l16.848-94.779c-.992-4.897-1.084-8.358-1.084-8.358-22.706 3.697-29.606-76.275-29.606-76.275-9.735-.906-19.251-3.214-28.256-6.82l10.804 70.43c3.65 4.096 6.371 9.037 7.819 14.518 5.568 21.074 13.659 56.97 18.152 101.283h.827z" fill="#1e9ef4"/><path d="m455.063 352.316c6.723 5.591 15.301 8.063 25.539 7.402 11.711-28.598 18.168-59.903 18.168-92.72 0-22.124-2.95-43.556-8.448-63.943-8.572-3.483-16.841-7.656-24.749-12.453l-25.147 132.327c1.065 7.372 4.374 20.854 14.637 29.387z" fill="#73c3f9"/><path d="m441.424 317.678-20.584 108.316c.571 6.108 1.071 12.368 1.485 18.761 25.395-24.088 45.626-53.559 58.886-86.58-38.659 3.042-39.787-40.497-39.787-40.497z" fill="#49b1f7"/><path d="m308.462 259.178 15.415 10.602c2.017 1.387 3.629 3.226 4.77 5.326 12.616 5.723 31.935 13.848 51.069 19.395 7.894 2.289 14.609 7.201 19.194 13.727l-22.156-117.628c-8.54 5.181-17.498 9.645-26.808 13.285-6.414 2.508-13.423 4.999-20.394 7.018-8.706 2.522-15.438 9.424-17.753 18.188-1.989 7.527-4.421 17.662-6.768 29.838 1.058-.506 2.355-.49 3.431.249z" fill="#49b1f7"/><path d="m412.987 9.641c-.049 3.417 1.688 6.636 5.166 9.587-.552.653-1.141 1.528-1.505 2.567h43.676c-8.445-13.108-23.157-21.795-39.909-21.795-.824 0-1.638.038-2.452.079-1.927 1.771-4.913 5.209-4.976 9.562z" fill="#d3dcfb"/><path d="m420.415 0c-16.751 0-31.464 8.687-39.909 21.795h37.754c.753-1.638 2.155-2.692 2.155-2.692-13.339-9.838 0-19.103 0-19.103z" fill="#bec8f7"/><path d="m374.658 125.553s-2.906-18.394.441-29.348c-3.037-2.025-8.905-3.013-11.545-.433-5.404 5.283-1.444 13.26.45 18.299.582 1.547.957 3.112 1.127 4.68.369 3.407 2.216 8.392 9.874 8.275-.115-.491-.234-.974-.347-1.473z" fill="#fc9460"/><path d="m479.536 95.772c-2.639-2.58-8.507-1.592-11.545.433 3.348 10.954.441 29.348.441 29.348-.113.499-.232.982-.347 1.473 7.658.117 9.505-4.868 9.874-8.275.17-1.568.545-3.133 1.127-4.68 1.894-5.039 5.853-13.016.45-18.299z" fill="#ffaa7b"/><path d="m465.472 90.506c-1.103-1.243-1.71-2.697-1.755-4.201-.171-5.728-1.617-19.747-11.333-26.216-6.891-4.589-16.579-4.541-28.795.143-1.318.506-2.77.506-4.088 0-.783-.3-1.555-.58-2.318-.842-9.769 6.839-11.261 20.494-11.441 26.171-.049 1.537-.71 3.021-1.914 4.29-6.629 7.001-5.177 27.456-3.63 35.877 3.425 14.169 8.387 26.524 14.745 36.722 4.89 7.844 11.697 14.355 19.94 19.178 8.512-4.82 15.494-11.654 20.39-20.033 5.834-9.983 10.387-22.082 13.537-35.983 1.363-8.668 2.815-28.172-3.338-35.106z" fill="#ffc7ab"/><g><path d="m415.38 161.595c-6.226-9.986-11.084-22.084-14.438-35.958-1.514-8.246-2.936-28.275 3.555-35.131 1.178-1.243 1.826-2.696 1.874-4.201.182-5.728 1.726-19.747 12.092-26.217.081-.051.169-.093.251-.143-11.842-4.384-21.266-4.345-28.007.143-9.716 6.469-11.162 20.489-11.333 26.217-.045 1.505-.652 2.958-1.756 4.201-6.084 6.856-4.751 26.885-3.332 35.131 3.143 13.874 7.697 25.972 13.532 35.958 5.923 10.138 14.894 18.022 25.942 22.802 4.949 2.14 10.622 2.141 15.57 0 2.31-.999 4.523-2.142 6.643-3.405-8.555-4.778-15.594-11.379-20.593-19.397z" fill="#ffaa7b"/></g><path d="m418.153 19.228c-.861 1.018-1.818 2.57-1.858 4.457-.04 1.92.841 3.717 2.62 5.349v35.146c-.812 1.041-2.565 3.66-2.322 6.595.119 1.439.683 2.734 1.675 3.869 15.206-.31 30.463 2.668 44.676 8.948 2.484 1.097 5.438.9 7.425-.345 2.201-1.38 3.808-3.65 4.279-6.364l6.959-40.029c1.611-9.269-5.523-17.751-14.931-17.751h-48.661c.05.041.09.083.138.125z" fill="#e9efff"/><path d="m420.415 64.719v-36.37c-5.898-4.824 0-9.246 0-9.246h-46.261c-9.408 0-16.543 8.482-14.931 17.751l6.959 40.029c.472 2.714 2.078 4.984 4.279 6.364 1.985 1.244 4.939 1.444 7.425.345 13.544-5.983 28.036-8.975 42.529-8.975-5.276-4.137 0-9.898 0-9.898z" fill="#d3dcfb"/><path d="m420.415 64.718c-3.31 0-6.018-2.708-6.018-6.018v-24.333c0-3.31 2.708-6.018 6.018-6.018 3.31 0 6.018 2.708 6.018 6.018v24.333c.001 3.31-2.708 6.018-6.018 6.018z" fill="#ff4155"/><path d="m438.6 46.534c0 3.31-2.708 6.018-6.018 6.018h-24.333c-3.31 0-6.018-2.708-6.018-6.018 0-3.31 2.708-6.018 6.018-6.018h24.333c3.31-.001 6.018 2.707 6.018 6.018z" fill="#ff7186"/><path d="m94.087 248.74c-9.398-7.614-16.896-15.738-22.864-23.609-2.257-.147-6.519.018-9.864 2.775-2.622 2.16-4.1 5.421-4.421 9.698 6.672 8.618 14.964 17.46 25.264 25.805l2.619 2.172c1.553 1.288 3.833 1.169 5.243-.273l10.817-11.061z" fill="#6289cc"/><path d="m72.499 226.784c-13.463-17.204-19.521-33.457-21.779-40.857-.432-1.415-2.125-1.983-3.337-1.135-1.743 1.221-2.65 1.582-2.65 1.582s-3.947 2.01-10.164 4.821c-1.012.457-1.517 1.6-1.172 2.655 3.237 9.917 10.43 27.359 24.969 45.572.001-15.386 14.133-12.638 14.133-12.638z" fill="#4f71b6"/><path d="m263.291 309.395c-3.608 0-6.811-1.569-10.024-1.569-2.941 0-5.889 1.569-9.164 1.569l-6.82 20.924c2.69 4.246 5.255 8.118 7.605 11.557 3.375 4.939 6.117 10.24 8.206 15.776 2.09-5.536 4.83-10.837 8.205-15.776 2.659-3.892 5.596-8.343 8.676-13.258z" fill="#3c58a0"/><path d="m281.531 308.93c8.24-15.051 16.408-32.468 22.379-50.864.397-1.222 1.378-2.041 2.5-2.314l-1.789-2.216c-2.431-3.01-6.953-3.201-9.627-.405l-26.456 27.659c-1.982 2.072-2.611 5.082-1.638 7.779 1.938 5.373 6.228 14.27 14.631 20.361z" fill="#73c3f9"/><path d="m202.277 258.066c6.081 18.736 14.442 36.453 22.836 51.693 9.195-6.086 13.793-15.569 15.822-21.19.973-2.697.344-5.707-1.638-7.779l-26.456-27.659c-2.674-2.796-7.197-2.606-9.627.405l-2.298 2.721c.614.416 1.108 1.029 1.361 1.809z" fill="#73c3f9"/><path d="m330.755 138.211c-3.218-2.949-9.628-1.454-12.399.352.607 3.781.642 7.649.117 11.469l-3.271 23.82c0 1.92-.06 3.804-.172 5.655 7.975 2.405 11.936-4.754 12.604-9.667.287-2.115.757-4.2 1.408-6.234 2.123-6.627 9.775-18.007 1.713-25.395z" fill="#ffaa7b"/><path d="m176.638 138.211c3.218-2.949 9.628-1.454 12.399.352-.607 3.781-.642 7.649-.117 11.469l3.27 23.82c0 1.92.061 3.804.172 5.655-7.975 2.405-11.936-4.754-12.604-9.667-.287-2.115-.757-4.2-1.408-6.234-2.121-6.627-9.774-18.007-1.712-25.395z" fill="#fc9460"/><path d="m249.008 375.822c-16.933-19.039-38.186-27.113-46.758-29.75-2.279-.701-3.559-3.055-2.916-5.359l2.99-10.691c.572-2.046.164-4.19-1.12-5.882s-3.239-2.663-5.363-2.663h-3.046c-9.707 1.377-39.858 8.454-39.858 43.154v125.702c29.645 13.404 62.433 21.082 96.958 21.618v-142.839c-.396 2.22-.693 4.459-.887 6.71z" fill="#bec8f7"/><path d="m154.437 364.63c0-40.184 41.403-41.977 41.403-41.977.106-.404.227-.772.341-1.157-.114-.006-.226-.02-.341-.02h-18.22c-1.248 0-2.398-.508-3.238-1.431s-1.238-2.116-1.121-3.359l3.641-38.596c.2-2.12.87-4.131 1.929-5.911-12.62 5.719-31.863 13.8-50.909 19.322-11.984 3.475-21.283 12.967-24.47 25.031-6.584 24.921-16.698 70.568-20.216 126.354 20.578 19.955 44.65 36.319 71.202 48.11-.001-27.275-.001-94.731-.001-126.366z" fill="#a2b2ed"/><ellipse cx="177.934" cy="386.574" fill="#e9efff" rx="32.158" ry="32.158" transform="matrix(.924 -.383 .383 .924 -134.391 97.519)"/><path d="m244.997 340.654c-5.965-8.729-13.332-20.287-20.6-33.68l-.012.139c-3.575-1.458-11.271-3.811-18.328-.727-5.386 2.354-9.213 7.352-11.384 14.858-1.475.148-4.317.521-7.852 1.408h9.02c3.678 0 6.341 3.509 5.35 7.051l-2.99 10.691c-.81 2.897.828 5.916 3.703 6.801 9.771 3.005 31.355 11.524 48.085 31.568.333-6.968 1.648-13.824 3.889-20.372-2.139-6.249-5.112-12.221-8.881-17.737z" fill="#d3dcfb"/><path d="m225.701 309.361v-.005c-8.355-15.126-16.697-32.751-22.75-51.401-.711-2.192-3.328-3.083-5.227-1.777l-15.414 10.602c-3.744 2.575-6.154 6.677-6.581 11.201l-3.641 38.596c-.308 3.26 2.256 6.077 5.531 6.077h18.221c6.711-25.661 29.861-13.293 29.861-13.293z" fill="#bec8f7"/><path d="m358.63 385.927c0-3.678 2.436-5.879 4.714-6.714 2.232-.816 5.441-.713 7.761 2.031 7.271 8.597 10.957 19.06 10.957 31.1v63.389c15.305-9.429 29.502-20.482 42.333-32.938-3.523-55.745-13.63-101.355-20.211-126.263-3.187-12.062-12.486-21.555-24.469-25.029-20.124-5.835-40.468-14.525-52.987-20.269 1.42 2 2.32 4.35 2.557 6.858l3.641 38.596c.117 1.243-.281 2.436-1.121 3.359s-1.99 1.431-3.238 1.431h-18.221c-2.124 0-4.079.971-5.363 2.663s-1.692 3.836-1.12 5.882l2.99 10.691c.645 2.304-.636 4.658-2.915 5.359-10.781 3.315-36.996 13.674-54.434 39.643h-1.177v126.216c1.81.04 3.622.069 5.442.069 37.526 0 73.074-8.446 104.862-23.529v-102.545z" fill="#d3dcfb"/><path d="m261.19 340.654c12.46-18.233 31.038-48.783 42.046-82.698.711-2.192 3.328-3.083 5.227-1.777l15.414 10.602c3.744 2.575 6.154 6.677 6.58 11.201l3.641 38.596c.308 3.26-2.257 6.077-5.531 6.077h-18.221c-3.678 0-6.34 3.509-5.35 7.051l2.99 10.691c.81 2.897-.827 5.916-3.703 6.801-11.396 3.505-38.867 14.494-55.957 42.54v-7.445c0-14.861 4.48-29.371 12.864-41.639z" fill="#e9efff"/><path d="m317.172 131.203c-.736-1.92-1.664-3.866-2.833-5.7-1.98-3.107-2.852-6.782-2.586-10.446.763-10.539.354-31.152-13.481-37.377-11.754-5.289-26.172-2.227-35.367.831-4.6 1.53-9.495 1.868-14.231 1.041-8.644 8.77-8.817 25.323-8.149 34.42.274 3.724-.643 7.449-2.656 10.606-1.16 1.82-2.088 3.746-2.83 5.652-2.407 6.184-3.109 12.892-2.207 19.459l3.35 24.398c0 35.076 18.724 58.917 34.65 71.285 1.279.993 2.621 1.887 3.987 2.736 2.571-1.312 5.03-2.859 7.332-4.647 15.553-12.077 33.837-35.358 33.837-69.61l3.271-23.82c.871-6.35.21-12.836-2.087-18.828z" fill="#ffc7ab"/><g><path d="m270.966 243.46c-15.553-12.077-33.837-35.358-33.837-69.61l-3.271-23.825c-.881-6.413-.195-12.963 2.156-19.002.725-1.862 1.631-3.743 2.764-5.52 1.965-3.083 2.86-6.721 2.593-10.357-.697-9.492-.458-27.3 9.811-35.262-2.265-.196-4.512-.649-6.692-1.374-9.195-3.058-23.613-6.12-35.367-.831-13.875 6.243-14.247 26.956-13.475 37.467.267 3.636-.628 7.273-2.593 10.357-1.132 1.777-2.038 3.658-2.763 5.52-2.351 6.039-3.036 12.589-2.156 19.002l3.271 23.825c0 34.252 18.284 57.533 33.837 69.61 8.118 6.304 18.136 9.728 28.454 9.728 8.059 0 15.931-2.098 22.862-6.017-1.944-1.097-3.817-2.33-5.594-3.711z" fill="#ffaa7b"/></g><path d="m177.934 404.759c-3.31 0-6.018-2.708-6.018-6.018v-24.333c0-3.31 2.708-6.018 6.018-6.018 3.31 0 6.018 2.708 6.018 6.018v24.333c.001 3.31-2.708 6.018-6.018 6.018z" fill="#ff4155"/><path d="m196.119 386.574c0 3.31-2.708 6.018-6.018 6.018h-24.334c-3.31 0-6.018-2.708-6.018-6.018 0-3.31 2.708-6.018 6.018-6.018h24.334c3.31 0 6.018 2.708 6.018 6.018z" fill="#ff7186"/><path d="m383.562 412.344c0-14.671-5.396-25.073-11.311-32.068-5.147-6.086-15.12-2.319-15.12 5.651v103.246c9.129-4.256 17.956-9.049 26.432-14.354-.001-17.905-.001-43.453-.001-62.475z" fill="#bec8f7"/></g></svg>