<svg id="Capa_1" enable-background="new 0 0 511.996 511.996" height="512" viewBox="0 0 511.996 511.996" width="512" xmlns="http://www.w3.org/2000/svg"><g><path d="m424.384 115.826-.04.04c-.22.23-.45.46-.69.69l-95.28 95.11-10.66 10.64c-2.73 2.73-7.16 2.73-9.89 0l-105.94-105.75c-.23-.23-.47-.46-.69-.69l-.04-.04c-12.64-12.83-20.23-30.66-19.53-50.25 1.27-35.68 30.46-64.59 66.15-65.55 5.99-.16 11.81.45 17.38 1.74 17.465 4.064 32.338 14.865 41.764 29.514 2.73 4.243 8.975 4.248 11.704.005 12.42-19.312 34.325-31.935 59.142-31.259 35.69.96 64.88 29.87 66.15 65.55.71 19.59-6.89 37.42-19.53 50.25z" fill="#fd8087"/><path d="m328.374 211.666-10.66 10.64c-2.73 2.73-7.16 2.73-9.89 0 0 0-106.41-106.21-106.63-106.44l-.04-.04c-12.64-12.83-20.23-30.66-19.53-50.25 1.27-35.68 30.46-64.59 66.15-65.55 5.99-.16 11.81.45 17.38 1.74.03.01.07.02.1.03-30.08 7.06-52.46 34.06-52.46 66.27 0 18.61 7.48 35.47 19.58 47.76l.04.04c.23.23 95.96 95.8 95.96 95.8z" fill="#fe646f"/><path d="m355.824 96.961h-18.329c-3.866 0-7-3.134-7-7v-18.329c0-3.866-3.134-7-7-7h-18.329c-3.866 0-7 3.134-7 7v18.329c0 3.866-3.134 7-7 7h-18.329c-3.866 0-7 3.134-7 7v18.329c0 3.866 3.134 7 7 7h18.329c3.866 0 7 3.134 7 7v18.329c0 3.866 3.134 7 7 7h18.329c3.866 0 7-3.134 7-7v-18.329c0-3.866 3.134-7 7-7h18.329c3.866 0 7-3.134 7-7v-18.329c0-3.866-3.134-7-7-7z" fill="#f2fbff"/><path d="m479.754 281.716-131.57 102.84c-9.11 7.13-20.34 10.99-31.89 10.99h-130.69l-15.79-.55-43-43-2.52-17.76s.01-.02.02-.06c1.07-2.19 32.94-67.09 94.51-67.09 5.23 0 10.44.52 15.61 1.43 15.23 2.66 30.09 8.68 44.14 14.67h49.09c11.23 0 19.66 9.04 20.64 19.13.26 2.55.03 5.18-.76 7.74l39.45-22.77 71.98-41.57c10.26-5.91 20.01-3.2 25.82 3.19 7.63 8.37 8.51 23.04-5.04 32.81z" fill="#fed2a4"/><path d="m173.234 351.956 43.59 43.59h-31.22l-15.79-.55-43-43-2.52-17.76s.01-.02.02-.06c1.07-2.19 32.94-67.09 94.51-67.09 5.23 0 10.44.52 15.61 1.43-29.5 5.47-50.82 25.67-63.81 42.24-9.7 12.37-8.51 30.08 2.61 41.2z" fill="#ffbd86"/><path d="m484.794 248.906-131.98 76.09c-9.32 6.28-14.12 7.38-25.15 7.56h-94.25c-4.31 0-7.8-3.5-7.8-7.81s3.49-7.8 7.8-7.8h94.25c5.75 0 10.74-3.69 12.41-9.17 1.1-3.61 4.58-5.32 8.23-5.46.26 2.55.03 5.18-.76 7.74l39.45-22.77 71.98-41.57c10.26-5.91 20.01-3.2 25.82 3.19z" fill="#ffbd86"/><path d="m192.013 446.295 17.218-17.218c2.734-2.734 2.734-7.166 0-9.9l-102.64-102.64c-2.734-2.734-7.166-2.734-9.899 0l-17.218 17.218-1.659 16.24 96.5 96.5z" fill="#f2fbff"/><path d="m202.423 435.886-10.408 10.408-17.701.202-96.5-96.5 1.662-16.241 17.219-17.219c2.734-2.734 7.166-2.734 9.899 0l5.458 5.458-.722.722c-6.097 6.097-6.097 15.981 0 22.078z" fill="#dff6fd"/><path d="m23.764 361.33 36.662-36.662c2.75-2.75 7.209-2.749 9.958.002l138.551 138.648c2.748 2.75 2.747 7.206-.002 9.954l-36.662 36.662c-2.75 2.75-7.209 2.749-9.958-.002l-138.551-138.648c-2.748-2.749-2.747-7.206.002-9.954z" fill="#99e6fc"/><path d="m182.908 499.3-10.642 10.635c-2.75 2.748-7.208 2.747-9.956-.003l-138.547-138.644c-2.747-2.749-2.747-7.205.001-9.954l36.661-36.67c2.75-2.75 7.209-2.75 9.958.001l10.633 10.64-8.934 8.934c-12.19 12.19-12.194 31.954-.008 44.148z" fill="#62dbfb"/></g></svg>